<svg version="1.1" id="Layer_1" xmlns="http://www.w3.org/2000/svg" xmlns:xlink="http://www.w3.org/1999/xlink" x="0px" y="0px"
	 width="100%" viewBox="0 0 240 224" enable-background="new 0 0 240 224" xml:space="preserve">
<path fill="#000000" opacity="1.000000" stroke="none" 
	d="
M149.551697,157.191833 
	C141.056961,157.172729 141.104340,157.174866 141.483276,148.796127 
	C141.591629,146.400330 142.052612,143.869980 140.271774,141.422073 
	C138.253998,144.265457 136.504333,147.066330 134.423157,149.594269 
	C130.032944,154.926926 124.390198,157.800034 117.359497,157.170273 
	C112.053848,156.695007 107.717201,154.480698 105.727196,149.162003 
	C103.703003,143.751953 105.083176,139.015488 109.045845,134.978027 
	C113.261650,130.682632 118.786064,128.730667 124.222450,126.614220 
	C128.093536,125.107178 132.088913,123.797272 135.725784,121.837112 
	C142.482559,118.195435 142.786011,110.115654 136.582077,105.526741 
	C131.055252,101.438675 121.346169,101.793518 115.989494,106.199409 
	C113.132950,108.548935 112.982933,111.575363 113.589172,114.824821 
	C113.915756,116.575317 115.119675,118.151367 114.655037,120.297546 
	C112.323662,121.289055 109.688797,121.882812 107.683800,120.193153 
	C105.499809,118.352623 107.169334,115.784393 107.830597,113.679207 
	C113.187775,96.624138 134.464157,97.299782 143.000626,104.561935 
	C146.457687,107.502907 147.066391,111.266312 145.470505,115.431686 
	C143.630157,120.235085 139.971191,123.303352 135.501022,125.432686 
	C130.997070,127.578079 126.314278,129.350861 121.829369,131.532623 
	C117.346252,133.713516 113.694160,136.832733 112.686920,142.064301 
	C111.920166,146.046738 112.462578,149.911972 115.908646,152.411957 
	C119.193138,154.794724 122.919991,154.270309 126.270668,152.236206 
	C133.193756,148.033356 136.710938,141.254898 139.607071,134.062790 
	C140.723160,131.291107 141.645554,128.433334 142.904617,125.730484 
	C143.605911,124.225014 144.902344,122.734726 146.793213,123.217537 
	C148.654709,123.692825 148.285217,125.599716 148.296677,127.038124 
	C148.343124,132.864838 148.330215,138.692169 148.312988,144.519180 
	C148.300385,148.785706 148.592804,152.919006 152.661758,155.165939 
	C152.428635,157.343857 151.038239,156.983948 149.551697,157.191833 
z"/>
<path fill="#000000" opacity="1.000000" stroke="none" 
	d="
M164.499939,93.678986 
	C164.796463,98.168053 166.378876,100.636734 171.041992,100.017311 
	C172.743317,99.791306 174.520355,100.287033 174.468109,102.612907 
	C174.415573,104.952591 172.572968,105.271599 170.903122,105.079208 
	C166.050919,104.520180 165.057236,106.925194 165.141403,111.243675 
	C165.362030,122.561913 165.185715,133.887512 165.219101,145.210022 
	C165.227310,147.990967 164.675507,151.287796 168.129196,152.470291 
	C171.797348,153.726212 174.591370,152.077591 176.473907,148.797546 
	C176.904633,148.047089 177.431824,147.440948 178.979340,147.814301 
	C178.554855,152.637253 175.736664,155.404770 171.369965,156.816971 
	C166.732254,158.316818 161.924728,156.524139 159.615631,152.626709 
	C158.124771,150.110291 157.736130,147.350662 157.744766,144.465179 
	C157.778656,133.142624 157.745285,121.819893 157.763474,110.497269 
	C157.767578,107.944969 157.795898,105.887199 154.517776,104.717964 
	C151.731003,103.723969 152.057388,101.165932 154.913345,100.193565 
	C157.392776,99.349388 157.740753,97.816650 157.764420,95.656540 
	C157.804733,91.976303 157.620377,88.346687 156.511124,84.799767 
	C154.473892,78.285538 151.545639,76.614304 144.983566,78.259392 
	C144.052078,78.492920 143.092102,78.612808 142.156799,78.783203 
	C140.569260,76.172546 140.292450,73.442673 142.000336,71.565567 
	C143.721405,69.673981 146.074951,71.515083 147.976883,72.319199 
	C157.296143,76.259300 162.861191,83.211601 164.499939,93.678986 
z"/>
<path fill="#000000" opacity="1.000000" stroke="none" 
	d="
M76.245621,99.771248 
	C89.360016,99.722313 96.823044,104.222160 100.419411,114.115150 
	C101.140640,116.099144 102.553703,118.476143 100.842384,120.170624 
	C99.075081,121.920547 96.527916,121.314102 94.398270,120.211922 
	C94.247223,119.797150 93.999664,119.468384 94.041924,119.182449 
	C95.341644,110.386818 94.490707,107.905319 89.180710,105.129379 
	C81.670174,101.203049 73.239868,101.898773 67.714859,106.900894 
	C57.771690,115.903008 57.457333,139.276184 67.154076,148.595749 
	C73.937660,155.115463 87.774925,154.150681 93.780197,146.942596 
	C97.029739,143.042206 94.884659,139.077087 94.275772,134.994934 
	C96.774513,133.446304 99.396088,133.224442 101.363907,134.858673 
	C103.389709,136.541046 101.752182,138.963287 101.060249,140.885300 
	C97.344864,151.205811 85.500725,158.484680 74.951035,157.080917 
	C62.502644,155.424530 53.642876,145.731354 52.757271,132.550034 
	C52.445427,127.908554 52.429707,123.242950 53.785351,118.677910 
	C57.067120,107.626770 64.282806,101.220482 76.245621,99.771248 
z"/>
<path fill="#000000" opacity="1.000000" stroke="none" 
	d="
M184.868042,118.001740 
	C184.866287,111.929291 184.866287,106.356277 184.866287,100.650642 
	C190.250137,100.459991 192.419907,102.131950 192.336151,106.997734 
	C192.124359,119.302589 192.348145,131.614365 192.219193,143.921494 
	C192.170700,148.549866 192.293106,152.928192 196.903168,156.166702 
	C191.345322,157.443954 185.994141,157.459763 179.947937,156.179398 
	C186.094147,152.860519 184.813797,147.439590 184.841507,142.452805 
	C184.885849,134.469116 184.863785,126.485069 184.868042,118.001740 
z"/>
<path fill="#000000" opacity="1.000000" stroke="none" 
	d="
M73.756912,161.248596 
	C76.979599,158.040131 83.439095,160.524612 85.654015,165.777115 
	C81.703224,164.976074 78.125809,166.323929 74.564377,166.715378 
	C73.364677,164.998932 73.767700,163.299652 73.756912,161.248596 
z"/>
</svg>